<svg width="379" height="408" viewBox="0 0 379 408" fill="none" xmlns="http://www.w3.org/2000/svg">
<path d="M364 24.7H360.4C359.4 24.4 358.4 24.3 357.4 24.3H333.6V11.7C333.6 5.50001 328.6 0.5 322.4 0.5H12.1C5.89998 0.5 0.900024 5.50001 0.900024 11.7V35.5V339.7V370.8C0.900024 390.8 17.2 407.1 37.2 407.1H40.2H76.5H357.6C358.3 407.1 359 407 359.7 406.9H364.2C372.1 406.9 378.4 400.5 378.4 392.7V38.9C378.3 31.1 371.9 24.7 364 24.7ZM346.3 384.7H76.4H40.1C30.8 384.7 23.2 377.1 23.2 367.8C23.2 358.5 30.8 350.9 40.1 350.9H92H322.5C328.7 350.9 333.7 345.9 333.7 339.7V46.7H346.3V384.7Z" fill="#ED547C" stroke="#ED547C"/>
</svg>
