<svg width="529" height="419" viewBox="0 0 529 419" fill="none" xmlns="http://www.w3.org/2000/svg">
<path d="M508.7 11.9C508.7 8.8 507.5 5.89997 505.2 3.79997C503 1.69997 500 0.59999 497 0.69999C446 2.79999 400.4 9.99995 361.5 22.1C323.9 33.8 291.3 50.4 264.6 71.6C237.8 50.4 205.3 33.8 167.7 22.1C128.8 9.99995 83.2 2.79999 32.2 0.69999C29.1 0.59999 26.2 1.69997 24 3.79997C21.8 5.89997 20.5 8.8 20.5 11.9V27H0.599976V365.4C0.599976 365.4 175.8 373.6 264.6 418.7C353.4 373.6 528.6 365.4 528.6 365.4V27H508.7V11.9ZM486.3 23.7V319C421.1 321.5 351.9 343.1 275.9 384.9V91.3C324.4 51.7 395.1 29 486.3 23.7ZM43 23.7C134.2 29 204.9 51.7 253.4 91.3V384.9C177.3 343.1 108.2 321.4 43 319V23.7Z" fill="#ED547C"/>
</svg>
